<svg xml:space="preserve" enable-background="new 0 0 186 187" viewBox="0 0 186 187" y="0px" x="0px" xmlns:xlink="http://www.w3.org/1999/xlink" xmlns="http://www.w3.org/2000/svg" version="1.1" class="bbl-logo">
	<g id="circle">
		<circle r="87.4" cy="93.4" cx="92.9" stroke-miterlimit="10" stroke-width="4" stroke="#52d090" fill="none"/>
	</g>
	<g id="top">
		<g>
			<path d="M29.9,57c1.1-1.8,2.5-3.7,4.3-4.9c2.3-1.8,5.1-2.5,8.1-0.6c1.8,1.1,3,3,2.7,5.5c2.2-2,5.1-2,7.4-0.6
				c3.2,1.9,3.8,5,3.2,8.3c-0.5,2.3-1.6,4.7-2.8,6.6l-3.9,6.5L25.8,63.8L29.9,57z M38.2,63.9l0.9-1.4c1.5-2.5,1.8-4.3,0.2-5.3
				c-1.7-1-3-0.3-4.7,2.5l-0.9,1.4L38.2,63.9z M47.5,69.5l0.7-1.2c0.9-1.5,1.5-2.7,1.7-3.8c0.2-1.1-0.2-2-1.3-2.6
				c-1.6-1-3.3-0.2-4.5,1.8l-1.7,2.7L47.5,69.5z" fill="#52d090"/>
			<path d="M61,27.7l5.5,13.7c1.8,4.5,4.4,6,7.3,4.9s3.7-4,1.8-8.6L70.1,24l6-2.4l5.3,13.1c3.2,7.9,1.6,13.5-5.7,16.5
				c-7.1,2.9-12.2-0.1-15.4-8l-5.3-13.1L61,27.7z" fill="#52d090"/>
			<path d="M95.9,47.4l3.7-26.5l6.4,0.9l-3.7,26.5L95.9,47.4z" fill="#52d090"/>
			<path d="M112,51l14.8-22.3l5.4,3.6l-11.9,17.9l9.1,6l-2.9,4.4L112,51z" fill="#52d090"/>
			<path d="M153.2,63.7L134.4,74l-3.1-5.6L150.1,58l-3-5.5l4.7-2.5l9.1,16.7l-4.7,2.5L153.2,63.7z" fill="#52d090"/>
		</g>
	</g>
	<g id="bottom">
		<g>
			<path d="M27.5,124l22.9-13.9l3.3,5.5l-18.4,11.1l5.6,9.3l-4.5,2.7L27.5,124z" fill="#52d090"/>
			<path d="M52.6,153.3l12.1-23.9l15.9,8l-2.4,4.7L68.1,137l-2.3,4.6l10.1,5.1l-2.4,4.7l-10.1-5.1l-2.6,5.1l10.1,5.1
				l-2.4,4.7L52.6,153.3z" fill="#52d090"/>
			<path d="M118.5,147.6c1.5,7.6-3.4,14.9-11.4,16.5s-15.4-3.2-16.9-10.8c-1.5-7.6,3.4-14.9,11.4-16.5
				S116.9,139.9,118.5,147.6z M96.6,151.9c1,4.9,4.9,7.8,9.4,6.9s7-5,6-10c-1-4.9-4.9-7.8-9.4-6.9S95.6,147,96.6,151.9z" fill="#52d090"/>
			<path d="M134.1,130.9l12.9,9.6l-3.8,5.1l-21.5-16l3.6-4.8l20,0l-12.9-9.6l3.8-5.1l21.5,16l-3.6,4.8L134.1,130.9z" fill="#52d090"/>
		</g>
	</g>
	<g id="by">
		<g>
			<path d="M82.9,93.9L82.9,93.9c2.8-4.2,5.5-6.9,8.4-6.9c2.3,0,3.4,1.5,3.4,3.5c0,2.7-1.9,6.2-5.1,9.3
				c-3.2,3.1-6.2,3.8-7.5,3.8c-2.1,0-3.2-1.4-3.2-3.6c0-1.9,0.9-4.7,2-7.8l4.6-12.1c0.8-2.2,0.9-2.9,0.4-3.3L85,76.3
				c-0.1-0.2,0-0.4,0.1-0.6c0.7-0.3,2.9-0.8,4.7-0.7l0.2,0.2l-2,5.2L82.9,93.9z M85.3,92.5c-2.5,2.8-3.7,6.1-3.7,7.9
				c0,1.5,0.7,2.1,1.4,2.1c0.6,0,2.1-0.8,3.8-2.6c2.4-2.8,5.4-7.8,5.4-10c0-1.1-0.7-1.4-1.4-1.4C89.7,88.4,87.7,89.7,85.3,92.5z" fill="#52d090"/>
			<path d="M102.9,93.8c0,2.5,0,5.4-0.6,8.7h0.2c1.3-1.9,2.4-4.4,3.3-6.8c0.8-2.3,1.4-6.3,1.5-7.3
				c0.1-1.1,0.7-1.2,0.9-1.2s0.8,0.2,1.1,0.4c0.2,0.2,0.4,0.4,0.4,0.8c0,1-1,6.1-4.6,12c-1.9,3.3-3.4,5.9-6.5,9.5
				c-2.9,3.4-4.9,4-6.2,4s-2.1-0.8-2.1-1.8c0-1,0.7-1.7,1.6-1.7c0.4,0,0.8,0.2,1.1,0.6c0.1,0.2,0.5,0.7,1.1,0.7
				c0.5,0,1.2-0.3,2.2-1.1c1-0.8,2.7-3.3,3.5-5.9c0.6-2,0.8-5.6,0.8-9c-0.1-4.4-0.7-5.9-1.5-5.9c-0.8,0-1.5,1.3-2.3,3
				c-0.4,0.1-0.7-0.2-0.7-0.5c0.8-2.6,2.6-5.1,4.5-5.1C102.6,87.1,102.9,91,102.9,93.8z" fill="#52d090"/>
		</g>
	</g>
</svg>